<?xml version="1.0" encoding="UTF-8" standalone="no"?>
<!DOCTYPE svg PUBLIC "-//W3C//DTD SVG 1.1//EN"
 "http://www.w3.org/Graphics/SVG/1.1/DTD/svg11.dtd">
<!-- Generated by graphviz version 2.26.3 (20100126.1600)
 -->
<!-- Title: controllers_diagram Pages: 1 -->
<svg width="968pt" height="884pt"
 viewBox="0.00 0.00 968.00 883.87" xmlns="http://www.w3.org/2000/svg" xmlns:xlink="http://www.w3.org/1999/xlink">
<g id="graph1" class="graph" transform="scale(1 1) rotate(0) translate(4 879.87)">
<title>controllers_diagram</title>
<polygon fill="white" stroke="white" points="-4,5 -4,-879.87 965,-879.87 965,5 -4,5"/>
<!-- _diagram_info -->
<g id="node1" class="node"><title>_diagram_info</title>
<text text-anchor="start" x="717" y="-137.3" font-family="Times Roman,serif" font-size="13.00">Controllers diagram</text>
<text text-anchor="start" x="717" y="-120.3" font-family="Times Roman,serif" font-size="13.00">Date: May 05 2013 &#45; 22:52</text>
<text text-anchor="start" x="717" y="-103.3" font-family="Times Roman,serif" font-size="13.00">Migration version: 20130505203447</text>
<text text-anchor="start" x="717" y="-86.3" font-family="Times Roman,serif" font-size="13.00">Generated by RailRoady 1.1.0</text>
<text text-anchor="start" x="717" y="-69.3" font-family="Times Roman,serif" font-size="13.00">http://railroady.prestonlee.com</text>
</g>
<!-- RegionsController -->
<g id="node2" class="node"><title>RegionsController</title>
<polyline fill="none" stroke="black" points="15.91,-442.591 130.91,-442.591 "/>
<path fill="none" stroke="black" d="M130.91,-442.591C136.91,-442.591 142.91,-448.591 142.91,-454.591"/>
<polyline fill="none" stroke="black" points="142.91,-454.591 142.91,-640.591 "/>
<path fill="none" stroke="black" d="M142.91,-640.591C142.91,-646.591 136.91,-652.591 130.91,-652.591"/>
<polyline fill="none" stroke="black" points="130.91,-652.591 15.91,-652.591 "/>
<path fill="none" stroke="black" d="M15.91,-652.591C9.91005,-652.591 3.91005,-646.591 3.91005,-640.591"/>
<polyline fill="none" stroke="black" points="3.91005,-640.591 3.91005,-454.591 "/>
<path fill="none" stroke="black" d="M3.91005,-454.591C3.91005,-448.591 9.91005,-442.591 15.91,-442.591"/>
<text text-anchor="middle" x="73.41" y="-635.991" font-family="Times Roman,serif" font-size="14.00">RegionsController</text>
<polyline fill="none" stroke="black" points="3.91005,-626.591 142.91,-626.591 "/>
<text text-anchor="start" x="11.91" y="-609.991" font-family="Times Roman,serif" font-size="14.00">create</text>
<text text-anchor="start" x="11.91" y="-591.991" font-family="Times Roman,serif" font-size="14.00">edit</text>
<text text-anchor="start" x="11.91" y="-573.991" font-family="Times Roman,serif" font-size="14.00">index</text>
<text text-anchor="start" x="11.91" y="-555.991" font-family="Times Roman,serif" font-size="14.00">map</text>
<text text-anchor="start" x="11.91" y="-537.991" font-family="Times Roman,serif" font-size="14.00">search</text>
<text text-anchor="start" x="11.91" y="-519.991" font-family="Times Roman,serif" font-size="14.00">show</text>
<text text-anchor="start" x="11.91" y="-501.991" font-family="Times Roman,serif" font-size="14.00">update</text>
<polyline fill="none" stroke="black" points="3.91005,-492.591 142.91,-492.591 "/>
<polyline fill="none" stroke="black" points="3.91005,-468.591 142.91,-468.591 "/>
<text text-anchor="start" x="11.91" y="-451.991" font-family="Times Roman,serif" font-size="14.00">_layout</text>
</g>
<!-- KindsController -->
<g id="node3" class="node"><title>KindsController</title>
<polyline fill="none" stroke="black" points="492.412,-456.6 590.412,-456.6 "/>
<path fill="none" stroke="black" d="M590.412,-456.6C596.412,-456.6 602.412,-462.6 602.412,-468.6"/>
<polyline fill="none" stroke="black" points="602.412,-468.6 602.412,-636.6 "/>
<path fill="none" stroke="black" d="M602.412,-636.6C602.412,-642.6 596.412,-648.6 590.412,-648.6"/>
<polyline fill="none" stroke="black" points="590.412,-648.6 492.412,-648.6 "/>
<path fill="none" stroke="black" d="M492.412,-648.6C486.412,-648.6 480.412,-642.6 480.412,-636.6"/>
<polyline fill="none" stroke="black" points="480.412,-636.6 480.412,-468.6 "/>
<path fill="none" stroke="black" d="M480.412,-468.6C480.412,-462.6 486.412,-456.6 492.412,-456.6"/>
<text text-anchor="middle" x="541.412" y="-632" font-family="Times Roman,serif" font-size="14.00">KindsController</text>
<polyline fill="none" stroke="black" points="480.412,-622.6 602.412,-622.6 "/>
<text text-anchor="start" x="488.412" y="-606" font-family="Times Roman,serif" font-size="14.00">create</text>
<text text-anchor="start" x="488.412" y="-588" font-family="Times Roman,serif" font-size="14.00">index</text>
<text text-anchor="start" x="488.412" y="-570" font-family="Times Roman,serif" font-size="14.00">new</text>
<text text-anchor="start" x="488.412" y="-552" font-family="Times Roman,serif" font-size="14.00">search</text>
<text text-anchor="start" x="488.412" y="-534" font-family="Times Roman,serif" font-size="14.00">show</text>
<text text-anchor="start" x="488.412" y="-516" font-family="Times Roman,serif" font-size="14.00">update</text>
<polyline fill="none" stroke="black" points="480.412,-506.6 602.412,-506.6 "/>
<polyline fill="none" stroke="black" points="480.412,-482.6 602.412,-482.6 "/>
<text text-anchor="start" x="488.412" y="-466" font-family="Times Roman,serif" font-size="14.00">_layout</text>
</g>
<!-- ApplicationController -->
<g id="node4" class="node"><title>ApplicationController</title>
<polyline fill="none" stroke="black" points="205.504,-388.153 410.504,-388.153 "/>
<path fill="none" stroke="black" d="M410.504,-388.153C416.504,-388.153 422.504,-394.153 422.504,-400.153"/>
<polyline fill="none" stroke="black" points="422.504,-400.153 422.504,-496.153 "/>
<path fill="none" stroke="black" d="M422.504,-496.153C422.504,-502.153 416.504,-508.153 410.504,-508.153"/>
<polyline fill="none" stroke="black" points="410.504,-508.153 205.504,-508.153 "/>
<path fill="none" stroke="black" d="M205.504,-508.153C199.504,-508.153 193.504,-502.153 193.504,-496.153"/>
<polyline fill="none" stroke="black" points="193.504,-496.153 193.504,-400.153 "/>
<path fill="none" stroke="black" d="M193.504,-400.153C193.504,-394.153 199.504,-388.153 205.504,-388.153"/>
<text text-anchor="middle" x="308.004" y="-491.553" font-family="Times Roman,serif" font-size="14.00">ApplicationController</text>
<polyline fill="none" stroke="black" points="193.504,-482.153 422.504,-482.153 "/>
<text text-anchor="start" x="201.504" y="-465.553" font-family="Times Roman,serif" font-size="14.00">_one_time_conditions_valid_8?</text>
<text text-anchor="start" x="201.504" y="-447.553" font-family="Times Roman,serif" font-size="14.00">handle_unverified_request</text>
<polyline fill="none" stroke="black" points="193.504,-438.153 422.504,-438.153 "/>
<polyline fill="none" stroke="black" points="193.504,-414.153 422.504,-414.153 "/>
<text text-anchor="start" x="201.504" y="-397.553" font-family="Times Roman,serif" font-size="14.00">_layout</text>
</g>
<!-- ApplicationController&#45;&gt;RegionsController -->
<g id="edge2" class="edge"><title>ApplicationController&#45;&gt;RegionsController</title>
<path fill="none" stroke="black" d="M193.456,-496.707C176.242,-504.004 158.949,-511.334 143.062,-518.068"/>
</g>
<!-- ApplicationController&#45;&gt;KindsController -->
<g id="edge4" class="edge"><title>ApplicationController&#45;&gt;KindsController</title>
<path fill="none" stroke="black" d="M422.656,-499.459C442.601,-508.384 462.626,-517.345 480.4,-525.298"/>
</g>
<!-- MapController -->
<g id="node5" class="node"><title>MapController</title>
<polyline fill="none" stroke="black" points="261.317,-679.61 351.317,-679.61 "/>
<path fill="none" stroke="black" d="M351.317,-679.61C357.317,-679.61 363.317,-685.61 363.317,-691.61"/>
<polyline fill="none" stroke="black" points="363.317,-691.61 363.317,-769.61 "/>
<path fill="none" stroke="black" d="M363.317,-769.61C363.317,-775.61 357.317,-781.61 351.317,-781.61"/>
<polyline fill="none" stroke="black" points="351.317,-781.61 261.317,-781.61 "/>
<path fill="none" stroke="black" d="M261.317,-781.61C255.317,-781.61 249.317,-775.61 249.317,-769.61"/>
<polyline fill="none" stroke="black" points="249.317,-769.61 249.317,-691.61 "/>
<path fill="none" stroke="black" d="M249.317,-691.61C249.317,-685.61 255.317,-679.61 261.317,-679.61"/>
<text text-anchor="middle" x="306.317" y="-765.01" font-family="Times Roman,serif" font-size="14.00">MapController</text>
<polyline fill="none" stroke="black" points="249.317,-755.61 363.317,-755.61 "/>
<text text-anchor="start" x="257.317" y="-739.01" font-family="Times Roman,serif" font-size="14.00">index</text>
<polyline fill="none" stroke="black" points="249.317,-729.61 363.317,-729.61 "/>
<polyline fill="none" stroke="black" points="249.317,-705.61 363.317,-705.61 "/>
<text text-anchor="start" x="257.317" y="-689.01" font-family="Times Roman,serif" font-size="14.00">_layout</text>
</g>
<!-- ApplicationController&#45;&gt;MapController -->
<g id="edge6" class="edge"><title>ApplicationController&#45;&gt;MapController</title>
<path fill="none" stroke="black" d="M307.644,-508.401C307.34,-559.275 306.91,-631.325 306.623,-679.442"/>
</g>
<!-- SearchController -->
<g id="node6" class="node"><title>SearchController</title>
<polyline fill="none" stroke="black" points="490.78,-711.461 599.78,-711.461 "/>
<path fill="none" stroke="black" d="M599.78,-711.461C605.78,-711.461 611.78,-717.461 611.78,-723.461"/>
<polyline fill="none" stroke="black" points="611.78,-723.461 611.78,-819.461 "/>
<path fill="none" stroke="black" d="M611.78,-819.461C611.78,-825.461 605.78,-831.461 599.78,-831.461"/>
<polyline fill="none" stroke="black" points="599.78,-831.461 490.78,-831.461 "/>
<path fill="none" stroke="black" d="M490.78,-831.461C484.78,-831.461 478.78,-825.461 478.78,-819.461"/>
<polyline fill="none" stroke="black" points="478.78,-819.461 478.78,-723.461 "/>
<path fill="none" stroke="black" d="M478.78,-723.461C478.78,-717.461 484.78,-711.461 490.78,-711.461"/>
<text text-anchor="middle" x="545.28" y="-814.861" font-family="Times Roman,serif" font-size="14.00">SearchController</text>
<polyline fill="none" stroke="black" points="478.78,-805.461 611.78,-805.461 "/>
<text text-anchor="start" x="486.78" y="-788.861" font-family="Times Roman,serif" font-size="14.00">index</text>
<text text-anchor="start" x="486.78" y="-770.861" font-family="Times Roman,serif" font-size="14.00">result</text>
<polyline fill="none" stroke="black" points="478.78,-761.461 611.78,-761.461 "/>
<polyline fill="none" stroke="black" points="478.78,-737.461 611.78,-737.461 "/>
<text text-anchor="start" x="486.78" y="-720.861" font-family="Times Roman,serif" font-size="14.00">_layout</text>
</g>
<!-- ApplicationController&#45;&gt;SearchController -->
<g id="edge8" class="edge"><title>ApplicationController&#45;&gt;SearchController</title>
<path fill="none" stroke="black" d="M352.077,-508.207C394.629,-566.187 458.702,-653.491 501.241,-711.455"/>
</g>
<!-- LinksController -->
<g id="node7" class="node"><title>LinksController</title>
<polyline fill="none" stroke="black" points="19.8111,-664.37 117.811,-664.37 "/>
<path fill="none" stroke="black" d="M117.811,-664.37C123.811,-664.37 129.811,-670.37 129.811,-676.37"/>
<polyline fill="none" stroke="black" points="129.811,-676.37 129.811,-862.37 "/>
<path fill="none" stroke="black" d="M129.811,-862.37C129.811,-868.37 123.811,-874.37 117.811,-874.37"/>
<polyline fill="none" stroke="black" points="117.811,-874.37 19.8111,-874.37 "/>
<path fill="none" stroke="black" d="M19.8111,-874.37C13.8111,-874.37 7.81113,-868.37 7.81113,-862.37"/>
<polyline fill="none" stroke="black" points="7.81113,-862.37 7.81113,-676.37 "/>
<path fill="none" stroke="black" d="M7.81113,-676.37C7.81113,-670.37 13.8111,-664.37 19.8111,-664.37"/>
<text text-anchor="middle" x="68.8111" y="-857.77" font-family="Times Roman,serif" font-size="14.00">LinksController</text>
<polyline fill="none" stroke="black" points="7.81113,-848.37 129.811,-848.37 "/>
<text text-anchor="start" x="15.8111" y="-831.77" font-family="Times Roman,serif" font-size="14.00">create</text>
<text text-anchor="start" x="15.8111" y="-813.77" font-family="Times Roman,serif" font-size="14.00">destroy</text>
<text text-anchor="start" x="15.8111" y="-795.77" font-family="Times Roman,serif" font-size="14.00">edit</text>
<text text-anchor="start" x="15.8111" y="-777.77" font-family="Times Roman,serif" font-size="14.00">index</text>
<text text-anchor="start" x="15.8111" y="-759.77" font-family="Times Roman,serif" font-size="14.00">new</text>
<text text-anchor="start" x="15.8111" y="-741.77" font-family="Times Roman,serif" font-size="14.00">show</text>
<text text-anchor="start" x="15.8111" y="-723.77" font-family="Times Roman,serif" font-size="14.00">update</text>
<polyline fill="none" stroke="black" points="7.81113,-714.37 129.811,-714.37 "/>
<polyline fill="none" stroke="black" points="7.81113,-690.37 129.811,-690.37 "/>
<text text-anchor="start" x="15.8111" y="-673.77" font-family="Times Roman,serif" font-size="14.00">_layout</text>
</g>
<!-- ApplicationController&#45;&gt;LinksController -->
<g id="edge10" class="edge"><title>ApplicationController&#45;&gt;LinksController</title>
<path fill="none" stroke="black" d="M263.294,-508.195C225.704,-558.676 171.598,-631.336 129.993,-687.207"/>
</g>
<!-- SongsController -->
<g id="node8" class="node"><title>SongsController</title>
<polyline fill="none" stroke="black" points="18.8692,-1.5 121.869,-1.5 "/>
<path fill="none" stroke="black" d="M121.869,-1.5C127.869,-1.5 133.869,-7.5 133.869,-13.5"/>
<polyline fill="none" stroke="black" points="133.869,-13.5 133.869,-235.5 "/>
<path fill="none" stroke="black" d="M133.869,-235.5C133.869,-241.5 127.869,-247.5 121.869,-247.5"/>
<polyline fill="none" stroke="black" points="121.869,-247.5 18.8692,-247.5 "/>
<path fill="none" stroke="black" d="M18.8692,-247.5C12.8692,-247.5 6.86921,-241.5 6.86921,-235.5"/>
<polyline fill="none" stroke="black" points="6.86921,-235.5 6.86921,-13.5 "/>
<path fill="none" stroke="black" d="M6.86921,-13.5C6.86921,-7.5 12.8692,-1.5 18.8692,-1.5"/>
<text text-anchor="middle" x="70.3692" y="-230.9" font-family="Times Roman,serif" font-size="14.00">SongsController</text>
<polyline fill="none" stroke="black" points="6.86921,-221.5 133.869,-221.5 "/>
<text text-anchor="start" x="14.8692" y="-204.9" font-family="Times Roman,serif" font-size="14.00">add_kind</text>
<text text-anchor="start" x="14.8692" y="-186.9" font-family="Times Roman,serif" font-size="14.00">add_region</text>
<text text-anchor="start" x="14.8692" y="-168.9" font-family="Times Roman,serif" font-size="14.00">create</text>
<text text-anchor="start" x="14.8692" y="-150.9" font-family="Times Roman,serif" font-size="14.00">destroy</text>
<text text-anchor="start" x="14.8692" y="-132.9" font-family="Times Roman,serif" font-size="14.00">edit</text>
<text text-anchor="start" x="14.8692" y="-114.9" font-family="Times Roman,serif" font-size="14.00">index</text>
<text text-anchor="start" x="14.8692" y="-96.9" font-family="Times Roman,serif" font-size="14.00">new</text>
<text text-anchor="start" x="14.8692" y="-78.9" font-family="Times Roman,serif" font-size="14.00">show</text>
<text text-anchor="start" x="14.8692" y="-60.9" font-family="Times Roman,serif" font-size="14.00">update</text>
<polyline fill="none" stroke="black" points="6.86921,-51.5 133.869,-51.5 "/>
<polyline fill="none" stroke="black" points="6.86921,-27.5 133.869,-27.5 "/>
<text text-anchor="start" x="14.8692" y="-10.9" font-family="Times Roman,serif" font-size="14.00">_layout</text>
</g>
<!-- ApplicationController&#45;&gt;SongsController -->
<g id="edge12" class="edge"><title>ApplicationController&#45;&gt;SongsController</title>
<path fill="none" stroke="black" d="M263.863,-388.035C227.355,-338.311 175.027,-267.042 133.992,-211.153"/>
</g>
<!-- SessionsController -->
<g id="node9" class="node"><title>SessionsController</title>
<polyline fill="none" stroke="black" points="486.891,-57.4916 606.891,-57.4916 "/>
<path fill="none" stroke="black" d="M606.891,-57.4916C612.891,-57.4916 618.891,-63.4916 618.891,-69.4916"/>
<polyline fill="none" stroke="black" points="618.891,-69.4916 618.891,-183.492 "/>
<path fill="none" stroke="black" d="M618.891,-183.492C618.891,-189.492 612.891,-195.492 606.891,-195.492"/>
<polyline fill="none" stroke="black" points="606.891,-195.492 486.891,-195.492 "/>
<path fill="none" stroke="black" d="M486.891,-195.492C480.891,-195.492 474.891,-189.492 474.891,-183.492"/>
<polyline fill="none" stroke="black" points="474.891,-183.492 474.891,-69.4916 "/>
<path fill="none" stroke="black" d="M474.891,-69.4916C474.891,-63.4916 480.891,-57.4916 486.891,-57.4916"/>
<text text-anchor="middle" x="546.891" y="-178.892" font-family="Times Roman,serif" font-size="14.00">SessionsController</text>
<polyline fill="none" stroke="black" points="474.891,-169.492 618.891,-169.492 "/>
<text text-anchor="start" x="482.891" y="-152.892" font-family="Times Roman,serif" font-size="14.00">create</text>
<text text-anchor="start" x="482.891" y="-134.892" font-family="Times Roman,serif" font-size="14.00">destroy</text>
<text text-anchor="start" x="482.891" y="-116.892" font-family="Times Roman,serif" font-size="14.00">new</text>
<polyline fill="none" stroke="black" points="474.891,-107.492 618.891,-107.492 "/>
<polyline fill="none" stroke="black" points="474.891,-83.4916 618.891,-83.4916 "/>
<text text-anchor="start" x="482.891" y="-66.8916" font-family="Times Roman,serif" font-size="14.00">_layout</text>
</g>
<!-- ApplicationController&#45;&gt;SessionsController -->
<g id="edge14" class="edge"><title>ApplicationController&#45;&gt;SessionsController</title>
<path fill="none" stroke="black" d="M352.656,-388.028C393.237,-333.386 453.091,-252.794 495.616,-195.534"/>
</g>
<!-- AlphabetController -->
<g id="node10" class="node"><title>AlphabetController</title>
<polyline fill="none" stroke="black" points="13,-284.185 136,-284.185 "/>
<path fill="none" stroke="black" d="M136,-284.185C142,-284.185 148,-290.185 148,-296.185"/>
<polyline fill="none" stroke="black" points="148,-296.185 148,-392.185 "/>
<path fill="none" stroke="black" d="M148,-392.185C148,-398.185 142,-404.185 136,-404.185"/>
<polyline fill="none" stroke="black" points="136,-404.185 13,-404.185 "/>
<path fill="none" stroke="black" d="M13,-404.185C7,-404.185 1,-398.185 1,-392.185"/>
<polyline fill="none" stroke="black" points="1,-392.185 1,-296.185 "/>
<path fill="none" stroke="black" d="M1,-296.185C1,-290.185 7,-284.185 13,-284.185"/>
<text text-anchor="middle" x="74.5" y="-387.585" font-family="Times Roman,serif" font-size="14.00">AlphabetController</text>
<polyline fill="none" stroke="black" points="1,-378.185 148,-378.185 "/>
<text text-anchor="start" x="9" y="-361.585" font-family="Times Roman,serif" font-size="14.00">index</text>
<text text-anchor="start" x="9" y="-343.585" font-family="Times Roman,serif" font-size="14.00">show</text>
<polyline fill="none" stroke="black" points="1,-334.185 148,-334.185 "/>
<polyline fill="none" stroke="black" points="1,-310.185 148,-310.185 "/>
<text text-anchor="start" x="9" y="-293.585" font-family="Times Roman,serif" font-size="14.00">_layout</text>
</g>
<!-- ApplicationController&#45;&gt;AlphabetController -->
<g id="edge16" class="edge"><title>ApplicationController&#45;&gt;AlphabetController</title>
<path fill="none" stroke="black" d="M193.304,-397.083C177.964,-390.253 162.577,-383.402 148.203,-377.001"/>
</g>
<!-- VersesController -->
<g id="node11" class="node"><title>VersesController</title>
<polyline fill="none" stroke="black" points="255.85,-60.1677 362.85,-60.1677 "/>
<path fill="none" stroke="black" d="M362.85,-60.1677C368.85,-60.1677 374.85,-66.1677 374.85,-72.1677"/>
<polyline fill="none" stroke="black" points="374.85,-72.1677 374.85,-258.168 "/>
<path fill="none" stroke="black" d="M374.85,-258.168C374.85,-264.168 368.85,-270.168 362.85,-270.168"/>
<polyline fill="none" stroke="black" points="362.85,-270.168 255.85,-270.168 "/>
<path fill="none" stroke="black" d="M255.85,-270.168C249.85,-270.168 243.85,-264.168 243.85,-258.168"/>
<polyline fill="none" stroke="black" points="243.85,-258.168 243.85,-72.1677 "/>
<path fill="none" stroke="black" d="M243.85,-72.1677C243.85,-66.1677 249.85,-60.1677 255.85,-60.1677"/>
<text text-anchor="middle" x="309.35" y="-253.568" font-family="Times Roman,serif" font-size="14.00">VersesController</text>
<polyline fill="none" stroke="black" points="243.85,-244.168 374.85,-244.168 "/>
<text text-anchor="start" x="251.85" y="-227.568" font-family="Times Roman,serif" font-size="14.00">create</text>
<text text-anchor="start" x="251.85" y="-209.568" font-family="Times Roman,serif" font-size="14.00">destroy</text>
<text text-anchor="start" x="251.85" y="-191.568" font-family="Times Roman,serif" font-size="14.00">edit</text>
<text text-anchor="start" x="251.85" y="-173.568" font-family="Times Roman,serif" font-size="14.00">index</text>
<text text-anchor="start" x="251.85" y="-155.568" font-family="Times Roman,serif" font-size="14.00">new</text>
<text text-anchor="start" x="251.85" y="-137.568" font-family="Times Roman,serif" font-size="14.00">show</text>
<text text-anchor="start" x="251.85" y="-119.568" font-family="Times Roman,serif" font-size="14.00">update</text>
<polyline fill="none" stroke="black" points="243.85,-110.168 374.85,-110.168 "/>
<polyline fill="none" stroke="black" points="243.85,-86.1677 374.85,-86.1677 "/>
<text text-anchor="start" x="251.85" y="-69.5677" font-family="Times Roman,serif" font-size="14.00">_layout</text>
</g>
<!-- ApplicationController&#45;&gt;VersesController -->
<g id="edge18" class="edge"><title>ApplicationController&#45;&gt;VersesController</title>
<path fill="none" stroke="black" d="M308.289,-388.139C308.452,-353.906 308.661,-310.021 308.85,-270.252"/>
</g>
<!-- UsersController -->
<g id="node12" class="node"><title>UsersController</title>
<polyline fill="none" stroke="black" points="485.395,-262.061 599.395,-262.061 "/>
<path fill="none" stroke="black" d="M599.395,-262.061C605.395,-262.061 611.395,-268.061 611.395,-274.061"/>
<polyline fill="none" stroke="black" points="611.395,-274.061 611.395,-424.061 "/>
<path fill="none" stroke="black" d="M611.395,-424.061C611.395,-430.061 605.395,-436.061 599.395,-436.061"/>
<polyline fill="none" stroke="black" points="599.395,-436.061 485.395,-436.061 "/>
<path fill="none" stroke="black" d="M485.395,-436.061C479.395,-436.061 473.395,-430.061 473.395,-424.061"/>
<polyline fill="none" stroke="black" points="473.395,-424.061 473.395,-274.061 "/>
<path fill="none" stroke="black" d="M473.395,-274.061C473.395,-268.061 479.395,-262.061 485.395,-262.061"/>
<text text-anchor="middle" x="542.395" y="-419.461" font-family="Times Roman,serif" font-size="14.00">UsersController</text>
<polyline fill="none" stroke="black" points="473.395,-410.061 611.395,-410.061 "/>
<text text-anchor="start" x="481.395" y="-393.461" font-family="Times Roman,serif" font-size="14.00">add_favourite</text>
<text text-anchor="start" x="481.395" y="-375.461" font-family="Times Roman,serif" font-size="14.00">create</text>
<text text-anchor="start" x="481.395" y="-357.461" font-family="Times Roman,serif" font-size="14.00">new</text>
<text text-anchor="start" x="481.395" y="-339.461" font-family="Times Roman,serif" font-size="14.00">remove_favourite</text>
<text text-anchor="start" x="481.395" y="-321.461" font-family="Times Roman,serif" font-size="14.00">show</text>
<polyline fill="none" stroke="black" points="473.395,-312.061 611.395,-312.061 "/>
<polyline fill="none" stroke="black" points="473.395,-288.061 611.395,-288.061 "/>
<text text-anchor="start" x="481.395" y="-271.461" font-family="Times Roman,serif" font-size="14.00">_layout</text>
</g>
<!-- ApplicationController&#45;&gt;UsersController -->
<g id="edge20" class="edge"><title>ApplicationController&#45;&gt;UsersController</title>
<path fill="none" stroke="black" d="M422.796,-399.623C440.079,-392.317 457.432,-384.98 473.35,-378.251"/>
</g>
</g>
</svg>
