<?xml version="1.0" encoding="UTF-8" standalone="no"?>
<!DOCTYPE svg PUBLIC "-//W3C//DTD SVG 1.1//EN"
 "http://www.w3.org/Graphics/SVG/1.1/DTD/svg11.dtd">
<!-- Generated by graphviz version 2.26.3 (20100126.1600)
 -->
<!-- Title: models_diagram Pages: 1 -->
<svg width="667pt" height="324pt"
 viewBox="0.00 0.00 667.00 324.00" xmlns="http://www.w3.org/2000/svg" xmlns:xlink="http://www.w3.org/1999/xlink">
<g id="graph1" class="graph" transform="scale(1 1) rotate(0) translate(4 320)">
<title>models_diagram</title>
<polygon fill="white" stroke="white" points="-4,5 -4,-320 664,-320 664,5 -4,5"/>
<!-- _diagram_info -->
<g id="node1" class="node"><title>_diagram_info</title>
<text text-anchor="start" x="8" y="-299.8" font-family="Times Roman,serif" font-size="13.00">Models diagram</text>
<text text-anchor="start" x="8" y="-282.8" font-family="Times Roman,serif" font-size="13.00">Date: May 05 2013 &#45; 22:51</text>
<text text-anchor="start" x="8" y="-265.8" font-family="Times Roman,serif" font-size="13.00">Migration version: 20130505203447</text>
<text text-anchor="start" x="8" y="-248.8" font-family="Times Roman,serif" font-size="13.00">Generated by RailRoady 1.1.0</text>
<text text-anchor="start" x="8" y="-231.8" font-family="Times Roman,serif" font-size="13.00">http://railroady.prestonlee.com</text>
</g>
<!-- Parser -->
<g id="node2" class="node"><title>Parser</title>
<ellipse fill="none" stroke="black" cx="310" cy="-269" rx="41.9273" ry="18.3848"/>
<text text-anchor="middle" x="310" y="-265.4" font-family="Times Roman,serif" font-size="14.00">Parser</text>
</g>
<!-- User -->
<g id="node3" class="node"><title>User</title>
<ellipse fill="none" stroke="black" cx="404" cy="-269" rx="33.9411" ry="18.3848"/>
<text text-anchor="middle" x="404" y="-265.4" font-family="Times Roman,serif" font-size="14.00">User</text>
</g>
<!-- Link -->
<g id="node4" class="node"><title>Link</title>
<ellipse fill="none" stroke="black" cx="255" cy="-93" rx="32.0265" ry="18.3848"/>
<text text-anchor="middle" x="255" y="-89.4" font-family="Times Roman,serif" font-size="14.00">Link</text>
</g>
<!-- User&#45;&gt;Link -->
<g id="edge4" class="edge"><title>User&#45;&gt;Link</title>
<path fill="none" stroke="#886584" d="M384.36,-245.801C356.286,-212.64 304.898,-151.941 276.061,-117.878"/>
<ellipse fill="none" stroke="#886584" cx="387.129" cy="-249.071" rx="4.00002" ry="4.00002"/>
<polygon fill="#886584" stroke="#886584" points="275.705,-117.457 272.678,-106.917 272.474,-113.641 269.243,-109.825 269.243,-109.825 269.243,-109.825 272.474,-113.641 265.809,-112.732 275.705,-117.457 275.705,-117.457"/>
</g>
<!-- Song -->
<g id="node6" class="node"><title>Song</title>
<ellipse fill="none" stroke="black" cx="441" cy="-167" rx="36.0624" ry="18.3848"/>
<text text-anchor="middle" x="441" y="-163.4" font-family="Times Roman,serif" font-size="14.00">Song</text>
</g>
<!-- User&#45;&gt;Song -->
<g id="edge6" class="edge"><title>User&#45;&gt;Song</title>
<path fill="none" stroke="#702e7c" d="M407.655,-242.345C412.101,-227.392 418.845,-208.791 425.25,-193.812"/>
<ellipse fill="none" stroke="#702e7c" cx="406.504" cy="-246.441" rx="4.00001" ry="4.00001"/>
<polygon fill="#702e7c" stroke="#702e7c" points="425.302,-193.697 433.49,-186.403 427.342,-189.132 429.382,-184.567 429.382,-184.567 429.382,-184.567 427.342,-189.132 425.274,-182.731 425.302,-193.697 425.302,-193.697"/>
</g>
<!-- Favourite -->
<g id="node7" class="node"><title>Favourite</title>
<ellipse fill="none" stroke="black" cx="362" cy="-93" rx="56.7776" ry="18.3848"/>
<text text-anchor="middle" x="362" y="-89.4" font-family="Times Roman,serif" font-size="14.00">Favourite</text>
</g>
<!-- User&#45;&gt;Favourite -->
<g id="edge2" class="edge"><title>User&#45;&gt;Favourite</title>
<path fill="none" stroke="#c01caf" d="M397.648,-242.381C389.88,-209.832 376.786,-154.961 368.814,-121.555"/>
<ellipse fill="none" stroke="#c01caf" cx="398.656" cy="-246.607" rx="4.00001" ry="4.00001"/>
<polygon fill="#c01caf" stroke="#c01caf" points="368.74,-121.245 370.796,-110.474 367.58,-116.382 366.419,-111.519 366.419,-111.519 366.419,-111.519 367.58,-116.382 362.042,-112.563 368.74,-121.245 368.74,-121.245"/>
</g>
<!-- Verse -->
<g id="node10" class="node"><title>Verse</title>
<ellipse fill="none" stroke="black" cx="620" cy="-93" rx="38.8909" ry="18.3848"/>
<text text-anchor="middle" x="620" y="-89.4" font-family="Times Roman,serif" font-size="14.00">Verse</text>
</g>
<!-- User&#45;&gt;Verse -->
<g id="edge8" class="edge"><title>User&#45;&gt;Verse</title>
<path fill="none" stroke="#6c904a" d="M423.977,-245.427C430.964,-237.665 439.054,-229.187 447,-222 493.364,-180.066 552.785,-137.993 588.545,-113.777"/>
<ellipse fill="none" stroke="#6c904a" cx="421.046" cy="-248.74" rx="4.00002" ry="4.00002"/>
<polygon fill="#6c904a" stroke="#6c904a" points="588.808,-113.6 599.617,-111.749 592.956,-110.808 597.104,-108.016 597.104,-108.016 597.104,-108.016 592.956,-110.808 594.592,-104.283 588.808,-113.6 588.808,-113.6"/>
</g>
<!-- Coords -->
<g id="node5" class="node"><title>Coords</title>
<ellipse fill="none" stroke="black" cx="585" cy="-269" rx="44.7575" ry="18.3848"/>
<text text-anchor="middle" x="585" y="-265.4" font-family="Times Roman,serif" font-size="14.00">Coords</text>
</g>
<!-- Song&#45;&gt;User -->
<g id="edge20" class="edge"><title>Song&#45;&gt;User</title>
<path fill="none" stroke="#f938b9" d="M436.776,-195.548C432.36,-210.075 425.959,-227.638 419.853,-241.948"/>
<polygon fill="#f938b9" stroke="#f938b9" points="436.87,-195.215 443.935,-186.829 438.239,-190.406 439.607,-185.597 439.607,-185.597 439.607,-185.597 438.239,-190.406 435.279,-184.366 436.87,-195.215 436.87,-195.215"/>
<polygon fill="#f938b9" stroke="#f938b9" points="419.785,-242.1 411.602,-249.4 417.748,-246.666 415.712,-251.233 415.712,-251.233 415.712,-251.233 417.748,-246.666 419.822,-253.066 419.785,-242.1 419.785,-242.1"/>
</g>
<!-- Song&#45;&gt;Link -->
<g id="edge12" class="edge"><title>Song&#45;&gt;Link</title>
<path fill="none" stroke="#ad76e2" d="M403.735,-153.697C374.275,-142.98 332.222,-127.24 296,-112 293.804,-111.076 291.551,-110.104 289.287,-109.107"/>
<ellipse fill="none" stroke="#ad76e2" cx="407.558" cy="-155.082" rx="4.00001" ry="4.00001"/>
<polygon fill="#ad76e2" stroke="#ad76e2" points="289.146,-109.044 281.872,-100.838 284.586,-106.993 280.026,-104.942 280.026,-104.942 280.026,-104.942 284.586,-106.993 278.18,-109.046 289.146,-109.044 289.146,-109.044"/>
</g>
<!-- Song&#45;&gt;Favourite -->
<g id="edge18" class="edge"><title>Song&#45;&gt;Favourite</title>
<path fill="none" stroke="#cbbe1f" d="M417.577,-145.059C408.334,-136.402 397.675,-126.417 388.18,-117.523"/>
<ellipse fill="none" stroke="#cbbe1f" cx="420.548" cy="-147.842" rx="4.00002" ry="4.00002"/>
<polygon fill="#cbbe1f" stroke="#cbbe1f" points="388.161,-117.505 383.939,-107.385 384.512,-114.087 380.863,-110.669 380.863,-110.669 380.863,-110.669 384.512,-114.087 377.786,-113.953 388.161,-117.505 388.161,-117.505"/>
</g>
<!-- Region -->
<g id="node8" class="node"><title>Region</title>
<ellipse fill="none" stroke="black" cx="519" cy="-93" rx="44.0472" ry="18.3848"/>
<text text-anchor="middle" x="519" y="-89.4" font-family="Times Roman,serif" font-size="14.00">Region</text>
</g>
<!-- Song&#45;&gt;Region -->
<g id="edge16" class="edge"><title>Song&#45;&gt;Region</title>
<path fill="none" stroke="#ebe347" d="M465.844,-143.43C474.657,-135.069 484.586,-125.649 493.456,-117.234"/>
<polygon fill="#ebe347" stroke="#ebe347" points="465.565,-143.694 455.214,-147.312 461.938,-147.136 458.311,-150.577 458.311,-150.577 458.311,-150.577 461.938,-147.136 461.408,-153.842 465.565,-143.694 465.565,-143.694"/>
<polygon fill="#ebe347" stroke="#ebe347" points="493.67,-117.031 504.022,-113.413 497.297,-113.59 500.925,-110.149 500.925,-110.149 500.925,-110.149 497.297,-113.59 497.827,-106.884 493.67,-117.031 493.67,-117.031"/>
</g>
<!-- Occurence -->
<g id="node9" class="node"><title>Occurence</title>
<ellipse fill="none" stroke="black" cx="483" cy="-19" rx="62.9325" ry="18.3848"/>
<text text-anchor="middle" x="483" y="-15.4" font-family="Times Roman,serif" font-size="14.00">Occurence</text>
</g>
<!-- Song&#45;&gt;Occurence -->
<g id="edge14" class="edge"><title>Song&#45;&gt;Occurence</title>
<path fill="none" stroke="#c42b18" d="M447.812,-140.621C452.698,-121.963 459.534,-96.387 466,-74 468.532,-65.2354 471.419,-55.7284 474.087,-47.1228"/>
<ellipse fill="none" stroke="#c42b18" cx="446.788" cy="-144.546" rx="4.00001" ry="4.00001"/>
<polygon fill="#c42b18" stroke="#c42b18" points="474.101,-47.078 481.379,-38.8752 475.592,-42.3055 477.084,-37.5331 477.084,-37.5331 477.084,-37.5331 475.592,-42.3055 472.788,-36.191 474.101,-47.078 474.101,-47.078"/>
</g>
<!-- Song&#45;&gt;Verse -->
<g id="edge10" class="edge"><title>Song&#45;&gt;Verse</title>
<path fill="none" stroke="#588a58" d="M477.074,-152.087C507.203,-139.631 550.072,-121.909 580.992,-109.126"/>
<ellipse fill="none" stroke="#588a58" cx="473.06" cy="-153.746" rx="4.00001" ry="4.00001"/>
<polygon fill="#588a58" stroke="#588a58" points="581.338,-108.983 592.299,-109.321 585.959,-107.073 590.58,-105.163 590.58,-105.163 590.58,-105.163 585.959,-107.073 588.86,-101.004 581.338,-108.983 581.338,-108.983"/>
</g>
<!-- Region&#45;&gt;Occurence -->
<g id="edge22" class="edge"><title>Region&#45;&gt;Occurence</title>
<path fill="none" stroke="#54f879" d="M506.559,-67.427C503.248,-60.6209 499.659,-53.2428 496.303,-46.3459"/>
<ellipse fill="none" stroke="#54f879" cx="508.351" cy="-71.1109" rx="4.00002" ry="4.00002"/>
<polygon fill="#54f879" stroke="#54f879" points="496.296,-46.3305 495.968,-35.3696 494.109,-41.8344 491.921,-37.3382 491.921,-37.3382 491.921,-37.3382 494.109,-41.8344 487.875,-39.3068 496.296,-46.3305 496.296,-46.3305"/>
</g>
<!-- Kind -->
<g id="node11" class="node"><title>Kind</title>
<ellipse fill="none" stroke="black" cx="489" cy="-269" rx="33.234" ry="18.3848"/>
<text text-anchor="middle" x="489" y="-265.4" font-family="Times Roman,serif" font-size="14.00">Kind</text>
</g>
<!-- Kind&#45;&gt;Song -->
<g id="edge24" class="edge"><title>Kind&#45;&gt;Song</title>
<path fill="none" stroke="#dbca92" d="M476.939,-243.371C469.926,-228.468 461.088,-209.687 453.931,-194.479"/>
<ellipse fill="none" stroke="#dbca92" cx="478.715" cy="-247.145" rx="4.00002" ry="4.00002"/>
<polygon fill="#dbca92" stroke="#dbca92" points="453.765,-194.126 453.579,-183.162 451.636,-189.602 449.507,-185.078 449.507,-185.078 449.507,-185.078 451.636,-189.602 445.435,-186.994 453.765,-194.126 453.765,-194.126"/>
</g>
</g>
</svg>
