<?xml version="1.0" encoding="UTF-8" standalone="no"?>
<!DOCTYPE svg PUBLIC "-//W3C//DTD SVG 1.1//EN"
 "http://www.w3.org/Graphics/SVG/1.1/DTD/svg11.dtd">
<!-- Generated by graphviz version 2.26.3 (20100126.1600)
 -->
<!-- Title: models_diagram Pages: 1 -->
<svg width="796pt" height="800pt"
 viewBox="0.00 0.00 796.00 800.00" xmlns="http://www.w3.org/2000/svg" xmlns:xlink="http://www.w3.org/1999/xlink">
<g id="graph1" class="graph" transform="scale(1 1) rotate(0) translate(4 796)">
<title>models_diagram</title>
<polygon fill="white" stroke="white" points="-4,5 -4,-796 793,-796 793,5 -4,5"/>
<!-- _diagram_info -->
<g id="node1" class="node"><title>_diagram_info</title>
<text text-anchor="start" x="8" y="-714.8" font-family="Times Roman,serif" font-size="13.00">Models diagram</text>
<text text-anchor="start" x="8" y="-697.8" font-family="Times Roman,serif" font-size="13.00">Date: May 05 2013 &#45; 22:51</text>
<text text-anchor="start" x="8" y="-680.8" font-family="Times Roman,serif" font-size="13.00">Migration version: 20130505203447</text>
<text text-anchor="start" x="8" y="-663.8" font-family="Times Roman,serif" font-size="13.00">Generated by RailRoady 1.1.0</text>
<text text-anchor="start" x="8" y="-646.8" font-family="Times Roman,serif" font-size="13.00">http://railroady.prestonlee.com</text>
</g>
<!-- User -->
<g id="node2" class="node"><title>User</title>
<polyline fill="none" stroke="black" points="280,-577 438,-577 "/>
<path fill="none" stroke="black" d="M438,-577C444,-577 450,-583 450,-589"/>
<polyline fill="none" stroke="black" points="450,-589 450,-779 "/>
<path fill="none" stroke="black" d="M450,-779C450,-785 444,-791 438,-791"/>
<polyline fill="none" stroke="black" points="438,-791 280,-791 "/>
<path fill="none" stroke="black" d="M280,-791C274,-791 268,-785 268,-779"/>
<polyline fill="none" stroke="black" points="268,-779 268,-589 "/>
<path fill="none" stroke="black" d="M268,-589C268,-583 274,-577 280,-577"/>
<text text-anchor="middle" x="359" y="-774.4" font-family="Times Roman,serif" font-size="14.00">User</text>
<polyline fill="none" stroke="black" points="268,-765 450,-765 "/>
<text text-anchor="start" x="276" y="-748.4" font-family="Times Roman,serif" font-size="14.00">id :integer</text>
<text text-anchor="start" x="276" y="-730.4" font-family="Times Roman,serif" font-size="14.00">first_name :string</text>
<text text-anchor="start" x="276" y="-712.4" font-family="Times Roman,serif" font-size="14.00">last_name :string</text>
<text text-anchor="start" x="276" y="-694.4" font-family="Times Roman,serif" font-size="14.00">email :string</text>
<text text-anchor="start" x="276" y="-676.4" font-family="Times Roman,serif" font-size="14.00">created_at :datetime</text>
<text text-anchor="start" x="276" y="-658.4" font-family="Times Roman,serif" font-size="14.00">updated_at :datetime</text>
<text text-anchor="start" x="276" y="-640.4" font-family="Times Roman,serif" font-size="14.00">password_digest :string</text>
<text text-anchor="start" x="276" y="-622.4" font-family="Times Roman,serif" font-size="14.00">remember_token :string</text>
<text text-anchor="start" x="276" y="-604.4" font-family="Times Roman,serif" font-size="14.00">verse_id :integer</text>
<text text-anchor="start" x="276" y="-586.4" font-family="Times Roman,serif" font-size="14.00">song_id :integer</text>
</g>
<!-- Link -->
<g id="node3" class="node"><title>Link</title>
<polyline fill="none" stroke="black" points="51.5,-163 192.5,-163 "/>
<path fill="none" stroke="black" d="M192.5,-163C198.5,-163 204.5,-169 204.5,-175"/>
<polyline fill="none" stroke="black" points="204.5,-175 204.5,-311 "/>
<path fill="none" stroke="black" d="M204.5,-311C204.5,-317 198.5,-323 192.5,-323"/>
<polyline fill="none" stroke="black" points="192.5,-323 51.5,-323 "/>
<path fill="none" stroke="black" d="M51.5,-323C45.5,-323 39.5,-317 39.5,-311"/>
<polyline fill="none" stroke="black" points="39.5,-311 39.5,-175 "/>
<path fill="none" stroke="black" d="M39.5,-175C39.5,-169 45.5,-163 51.5,-163"/>
<text text-anchor="middle" x="122" y="-306.4" font-family="Times Roman,serif" font-size="14.00">Link</text>
<polyline fill="none" stroke="black" points="39.5,-297 204.5,-297 "/>
<text text-anchor="start" x="47.5" y="-280.4" font-family="Times Roman,serif" font-size="14.00">id :integer</text>
<text text-anchor="start" x="47.5" y="-262.4" font-family="Times Roman,serif" font-size="14.00">link :string</text>
<text text-anchor="start" x="47.5" y="-244.4" font-family="Times Roman,serif" font-size="14.00">description :text</text>
<text text-anchor="start" x="47.5" y="-226.4" font-family="Times Roman,serif" font-size="14.00">user_id :integer</text>
<text text-anchor="start" x="47.5" y="-208.4" font-family="Times Roman,serif" font-size="14.00">song_id :integer</text>
<text text-anchor="start" x="47.5" y="-190.4" font-family="Times Roman,serif" font-size="14.00">created_at :datetime</text>
<text text-anchor="start" x="47.5" y="-172.4" font-family="Times Roman,serif" font-size="14.00">updated_at :datetime</text>
</g>
<!-- User&#45;&gt;Link -->
<g id="edge4" class="edge"><title>User&#45;&gt;Link</title>
<path fill="none" stroke="#d64245" d="M297.494,-569.552C257.711,-495.526 206.679,-400.568 169.912,-332.153"/>
<ellipse fill="none" stroke="#d64245" cx="299.584" cy="-573.441" rx="4.00002" ry="4.00002"/>
<polygon fill="#d64245" stroke="#d64245" points="169.782,-331.912 169.012,-320.973 167.415,-327.507 165.049,-323.103 165.049,-323.103 165.049,-323.103 167.415,-327.507 161.085,-325.233 169.782,-331.912 169.782,-331.912"/>
</g>
<!-- Song -->
<g id="node4" class="node"><title>Song</title>
<polyline fill="none" stroke="black" points="342.5,-361 485.5,-361 "/>
<path fill="none" stroke="black" d="M485.5,-361C491.5,-361 497.5,-367 497.5,-373"/>
<polyline fill="none" stroke="black" points="497.5,-373 497.5,-527 "/>
<path fill="none" stroke="black" d="M497.5,-527C497.5,-533 491.5,-539 485.5,-539"/>
<polyline fill="none" stroke="black" points="485.5,-539 342.5,-539 "/>
<path fill="none" stroke="black" d="M342.5,-539C336.5,-539 330.5,-533 330.5,-527"/>
<polyline fill="none" stroke="black" points="330.5,-527 330.5,-373 "/>
<path fill="none" stroke="black" d="M330.5,-373C330.5,-367 336.5,-361 342.5,-361"/>
<text text-anchor="middle" x="414" y="-522.4" font-family="Times Roman,serif" font-size="14.00">Song</text>
<polyline fill="none" stroke="black" points="330.5,-513 497.5,-513 "/>
<text text-anchor="start" x="338.5" y="-496.4" font-family="Times Roman,serif" font-size="14.00">id :integer</text>
<text text-anchor="start" x="338.5" y="-478.4" font-family="Times Roman,serif" font-size="14.00">title :string</text>
<text text-anchor="start" x="338.5" y="-460.4" font-family="Times Roman,serif" font-size="14.00">title_norm :string</text>
<text text-anchor="start" x="338.5" y="-442.4" font-family="Times Roman,serif" font-size="14.00">first_letter_id :integer</text>
<text text-anchor="start" x="338.5" y="-424.4" font-family="Times Roman,serif" font-size="14.00">created_at :datetime</text>
<text text-anchor="start" x="338.5" y="-406.4" font-family="Times Roman,serif" font-size="14.00">updated_at :datetime</text>
<text text-anchor="start" x="338.5" y="-388.4" font-family="Times Roman,serif" font-size="14.00">kind_id :integer</text>
<text text-anchor="start" x="338.5" y="-370.4" font-family="Times Roman,serif" font-size="14.00">user_id :integer</text>
</g>
<!-- User&#45;&gt;Song -->
<g id="edge6" class="edge"><title>User&#45;&gt;Song</title>
<path fill="none" stroke="#33d28d" d="M379.3,-568.918C380.837,-562.355 382.404,-555.784 383.983,-549.287"/>
<ellipse fill="none" stroke="#33d28d" cx="378.343" cy="-573.034" rx="4.00001" ry="4.00001"/>
<polygon fill="#33d28d" stroke="#33d28d" points="384.087,-548.863 390.839,-540.222 385.278,-544.007 386.469,-539.151 386.469,-539.151 386.469,-539.151 385.278,-544.007 382.098,-538.079 384.087,-548.863 384.087,-548.863"/>
</g>
<!-- Favourite -->
<g id="node5" class="node"><title>Favourite</title>
<polyline fill="none" stroke="black" points="233.5,-181 374.5,-181 "/>
<path fill="none" stroke="black" d="M374.5,-181C380.5,-181 386.5,-187 386.5,-193"/>
<polyline fill="none" stroke="black" points="386.5,-193 386.5,-293 "/>
<path fill="none" stroke="black" d="M386.5,-293C386.5,-299 380.5,-305 374.5,-305"/>
<polyline fill="none" stroke="black" points="374.5,-305 233.5,-305 "/>
<path fill="none" stroke="black" d="M233.5,-305C227.5,-305 221.5,-299 221.5,-293"/>
<polyline fill="none" stroke="black" points="221.5,-293 221.5,-193 "/>
<path fill="none" stroke="black" d="M221.5,-193C221.5,-187 227.5,-181 233.5,-181"/>
<text text-anchor="middle" x="304" y="-288.4" font-family="Times Roman,serif" font-size="14.00">Favourite</text>
<polyline fill="none" stroke="black" points="221.5,-279 386.5,-279 "/>
<text text-anchor="start" x="229.5" y="-262.4" font-family="Times Roman,serif" font-size="14.00">id :integer</text>
<text text-anchor="start" x="229.5" y="-244.4" font-family="Times Roman,serif" font-size="14.00">user_id :integer</text>
<text text-anchor="start" x="229.5" y="-226.4" font-family="Times Roman,serif" font-size="14.00">song_id :integer</text>
<text text-anchor="start" x="229.5" y="-208.4" font-family="Times Roman,serif" font-size="14.00">created_at :datetime</text>
<text text-anchor="start" x="229.5" y="-190.4" font-family="Times Roman,serif" font-size="14.00">updated_at :datetime</text>
</g>
<!-- User&#45;&gt;Favourite -->
<g id="edge2" class="edge"><title>User&#45;&gt;Favourite</title>
<path fill="none" stroke="#480fec" d="M327.307,-568.646C325.284,-559.002 323.473,-549.363 322,-540 310.03,-463.903 305.898,-375.683 304.534,-315.284"/>
<ellipse fill="none" stroke="#480fec" cx="328.21" cy="-572.832" rx="4.00001" ry="4.00001"/>
<polygon fill="#480fec" stroke="#480fec" points="304.53,-315.087 308.823,-304.996 304.427,-310.088 304.324,-305.089 304.324,-305.089 304.324,-305.089 304.427,-310.088 299.825,-305.182 304.53,-315.087 304.53,-315.087"/>
</g>
<!-- Verse -->
<g id="node8" class="node"><title>Verse</title>
<polyline fill="none" stroke="black" points="635.5,-172 776.5,-172 "/>
<path fill="none" stroke="black" d="M776.5,-172C782.5,-172 788.5,-178 788.5,-184"/>
<polyline fill="none" stroke="black" points="788.5,-184 788.5,-302 "/>
<path fill="none" stroke="black" d="M788.5,-302C788.5,-308 782.5,-314 776.5,-314"/>
<polyline fill="none" stroke="black" points="776.5,-314 635.5,-314 "/>
<path fill="none" stroke="black" d="M635.5,-314C629.5,-314 623.5,-308 623.5,-302"/>
<polyline fill="none" stroke="black" points="623.5,-302 623.5,-184 "/>
<path fill="none" stroke="black" d="M623.5,-184C623.5,-178 629.5,-172 635.5,-172"/>
<text text-anchor="middle" x="706" y="-297.4" font-family="Times Roman,serif" font-size="14.00">Verse</text>
<polyline fill="none" stroke="black" points="623.5,-288 788.5,-288 "/>
<text text-anchor="start" x="631.5" y="-271.4" font-family="Times Roman,serif" font-size="14.00">id :integer</text>
<text text-anchor="start" x="631.5" y="-253.4" font-family="Times Roman,serif" font-size="14.00">song_id :integer</text>
<text text-anchor="start" x="631.5" y="-235.4" font-family="Times Roman,serif" font-size="14.00">text :text</text>
<text text-anchor="start" x="631.5" y="-217.4" font-family="Times Roman,serif" font-size="14.00">created_at :datetime</text>
<text text-anchor="start" x="631.5" y="-199.4" font-family="Times Roman,serif" font-size="14.00">updated_at :datetime</text>
<text text-anchor="start" x="631.5" y="-181.4" font-family="Times Roman,serif" font-size="14.00">user_id :integer</text>
</g>
<!-- User&#45;&gt;Verse -->
<g id="edge8" class="edge"><title>User&#45;&gt;Verse</title>
<path fill="none" stroke="#d66f8e" d="M456.252,-578.521C457.169,-577.674 458.085,-576.833 459,-576 478.453,-558.282 487.97,-559.164 506,-540 568.447,-473.623 624.962,-385.868 661.859,-322.989"/>
<ellipse fill="none" stroke="#d66f8e" cx="453.11" cy="-581.466" rx="4.00002" ry="4.00002"/>
<polygon fill="#d66f8e" stroke="#d66f8e" points="661.896,-322.925 670.821,-316.553 664.415,-318.606 666.933,-314.286 666.933,-314.286 666.933,-314.286 664.415,-318.606 663.046,-312.02 661.896,-322.925 661.896,-322.925"/>
</g>
<!-- Song&#45;&gt;User -->
<g id="edge20" class="edge"><title>Song&#45;&gt;User</title>
<path fill="none" stroke="#7f6f27" d="M397.383,-549.117C396.028,-555.081 394.635,-561.109 393.218,-567.136"/>
<polygon fill="#7f6f27" stroke="#7f6f27" points="397.43,-548.907 404.013,-540.137 398.526,-544.029 399.623,-539.151 399.623,-539.151 399.623,-539.151 398.526,-544.029 395.232,-538.164 397.43,-548.907 397.43,-548.907"/>
<polygon fill="#7f6f27" stroke="#7f6f27" points="393.203,-567.2 386.516,-575.891 392.049,-572.065 390.894,-576.93 390.894,-576.93 390.894,-576.93 392.049,-572.065 395.273,-577.969 393.203,-567.2 393.203,-567.2"/>
</g>
<!-- Song&#45;&gt;Link -->
<g id="edge12" class="edge"><title>Song&#45;&gt;Link</title>
<path fill="none" stroke="#084f5b" d="M323.28,-397.576C287.979,-376.042 247.747,-350.067 213,-324 212.913,-323.935 212.826,-323.869 212.738,-323.803"/>
<ellipse fill="none" stroke="#084f5b" cx="326.853" cy="-399.746" rx="4.00002" ry="4.00002"/>
<polygon fill="#084f5b" stroke="#084f5b" points="212.512,-323.63 207.327,-313.967 208.549,-320.582 204.585,-317.535 204.585,-317.535 204.585,-317.535 208.549,-320.582 201.842,-321.102 212.512,-323.63 212.512,-323.63"/>
</g>
<!-- Song&#45;&gt;Favourite -->
<g id="edge18" class="edge"><title>Song&#45;&gt;Favourite</title>
<path fill="none" stroke="#0d8d5f" d="M362.576,-353.229C355.591,-340.085 348.53,-326.797 341.844,-314.216"/>
<ellipse fill="none" stroke="#0d8d5f" cx="364.675" cy="-357.179" rx="4.00002" ry="4.00002"/>
<polygon fill="#0d8d5f" stroke="#0d8d5f" points="341.741,-314.022 341.023,-303.08 339.395,-309.607 337.049,-305.192 337.049,-305.192 337.049,-305.192 339.395,-309.607 333.075,-307.303 341.741,-314.022 341.741,-314.022"/>
</g>
<!-- Region -->
<g id="node6" class="node"><title>Region</title>
<polyline fill="none" stroke="black" points="453.5,-172 594.5,-172 "/>
<path fill="none" stroke="black" d="M594.5,-172C600.5,-172 606.5,-178 606.5,-184"/>
<polyline fill="none" stroke="black" points="606.5,-184 606.5,-302 "/>
<path fill="none" stroke="black" d="M606.5,-302C606.5,-308 600.5,-314 594.5,-314"/>
<polyline fill="none" stroke="black" points="594.5,-314 453.5,-314 "/>
<path fill="none" stroke="black" d="M453.5,-314C447.5,-314 441.5,-308 441.5,-302"/>
<polyline fill="none" stroke="black" points="441.5,-302 441.5,-184 "/>
<path fill="none" stroke="black" d="M441.5,-184C441.5,-178 447.5,-172 453.5,-172"/>
<text text-anchor="middle" x="524" y="-297.4" font-family="Times Roman,serif" font-size="14.00">Region</text>
<polyline fill="none" stroke="black" points="441.5,-288 606.5,-288 "/>
<text text-anchor="start" x="449.5" y="-271.4" font-family="Times Roman,serif" font-size="14.00">id :integer</text>
<text text-anchor="start" x="449.5" y="-253.4" font-family="Times Roman,serif" font-size="14.00">name :string</text>
<text text-anchor="start" x="449.5" y="-235.4" font-family="Times Roman,serif" font-size="14.00">created_at :datetime</text>
<text text-anchor="start" x="449.5" y="-217.4" font-family="Times Roman,serif" font-size="14.00">updated_at :datetime</text>
<text text-anchor="start" x="449.5" y="-199.4" font-family="Times Roman,serif" font-size="14.00">coords :text</text>
<text text-anchor="start" x="449.5" y="-181.4" font-family="Times Roman,serif" font-size="14.00">description :text</text>
</g>
<!-- Song&#45;&gt;Region -->
<g id="edge16" class="edge"><title>Song&#45;&gt;Region</title>
<path fill="none" stroke="#36823d" d="M466.307,-351.568C471.379,-342.023 476.482,-332.419 481.443,-323.085"/>
<polygon fill="#36823d" stroke="#36823d" points="466.141,-351.881 457.474,-358.6 463.794,-356.296 461.448,-360.711 461.448,-360.711 461.448,-360.711 463.794,-356.296 465.422,-362.823 466.141,-351.881 466.141,-351.881"/>
<polygon fill="#36823d" stroke="#36823d" points="481.457,-323.058 490.123,-316.339 483.803,-318.643 486.15,-314.227 486.15,-314.227 486.15,-314.227 483.803,-318.643 482.176,-312.116 481.457,-323.058 481.457,-323.058"/>
</g>
<!-- Occurence -->
<g id="node7" class="node"><title>Occurence</title>
<polyline fill="none" stroke="black" points="398.5,-1 539.5,-1 "/>
<path fill="none" stroke="black" d="M539.5,-1C545.5,-1 551.5,-7 551.5,-13"/>
<polyline fill="none" stroke="black" points="551.5,-13 551.5,-113 "/>
<path fill="none" stroke="black" d="M551.5,-113C551.5,-119 545.5,-125 539.5,-125"/>
<polyline fill="none" stroke="black" points="539.5,-125 398.5,-125 "/>
<path fill="none" stroke="black" d="M398.5,-125C392.5,-125 386.5,-119 386.5,-113"/>
<polyline fill="none" stroke="black" points="386.5,-113 386.5,-13 "/>
<path fill="none" stroke="black" d="M386.5,-13C386.5,-7 392.5,-1 398.5,-1"/>
<text text-anchor="middle" x="469" y="-108.4" font-family="Times Roman,serif" font-size="14.00">Occurence</text>
<polyline fill="none" stroke="black" points="386.5,-99 551.5,-99 "/>
<text text-anchor="start" x="394.5" y="-82.4" font-family="Times Roman,serif" font-size="14.00">id :integer</text>
<text text-anchor="start" x="394.5" y="-64.4" font-family="Times Roman,serif" font-size="14.00">region_id :integer</text>
<text text-anchor="start" x="394.5" y="-46.4" font-family="Times Roman,serif" font-size="14.00">song_id :integer</text>
<text text-anchor="start" x="394.5" y="-28.4" font-family="Times Roman,serif" font-size="14.00">created_at :datetime</text>
<text text-anchor="start" x="394.5" y="-10.4" font-family="Times Roman,serif" font-size="14.00">updated_at :datetime</text>
</g>
<!-- Song&#45;&gt;Occurence -->
<g id="edge14" class="edge"><title>Song&#45;&gt;Occurence</title>
<path fill="none" stroke="#e659dd" d="M413.608,-352.703C415.068,-296.449 419.826,-224.628 433,-162 434.88,-153.063 437.396,-143.845 440.229,-134.797"/>
<ellipse fill="none" stroke="#e659dd" cx="413.509" cy="-356.888" rx="4" ry="4"/>
<polygon fill="#e659dd" stroke="#e659dd" points="440.303,-134.57 447.689,-126.465 441.858,-129.818 443.412,-125.066 443.412,-125.066 443.412,-125.066 441.858,-129.818 439.135,-123.666 440.303,-134.57 440.303,-134.57"/>
</g>
<!-- Song&#45;&gt;Verse -->
<g id="edge10" class="edge"><title>Song&#45;&gt;Verse</title>
<path fill="none" stroke="#1ac327" d="M504.72,-397.576C540.021,-376.042 580.253,-350.067 615,-324 616.586,-322.81 618.178,-321.599 619.773,-320.369"/>
<ellipse fill="none" stroke="#1ac327" cx="501.147" cy="-399.746" rx="4.00002" ry="4.00002"/>
<polygon fill="#1ac327" stroke="#1ac327" points="619.906,-320.265 630.548,-317.619 623.836,-317.174 627.766,-314.082 627.766,-314.082 627.766,-314.082 623.836,-317.174 624.984,-310.545 619.906,-320.265 619.906,-320.265"/>
</g>
<!-- Region&#45;&gt;Occurence -->
<g id="edge22" class="edge"><title>Region&#45;&gt;Occurence</title>
<path fill="none" stroke="#8ee621" d="M499.814,-163.845C496.877,-154.234 493.889,-144.456 490.987,-134.957"/>
<ellipse fill="none" stroke="#8ee621" cx="501.094" cy="-168.034" rx="4.00001" ry="4.00001"/>
<polygon fill="#8ee621" stroke="#8ee621" points="490.921,-134.742 492.302,-123.863 489.46,-129.96 487.999,-125.178 487.999,-125.178 487.999,-125.178 489.46,-129.96 483.695,-126.493 490.921,-134.742 490.921,-134.742"/>
</g>
<!-- Kind -->
<g id="node9" class="node"><title>Kind</title>
<polyline fill="none" stroke="black" points="479.5,-613 620.5,-613 "/>
<path fill="none" stroke="black" d="M620.5,-613C626.5,-613 632.5,-619 632.5,-625"/>
<polyline fill="none" stroke="black" points="632.5,-625 632.5,-743 "/>
<path fill="none" stroke="black" d="M632.5,-743C632.5,-749 626.5,-755 620.5,-755"/>
<polyline fill="none" stroke="black" points="620.5,-755 479.5,-755 "/>
<path fill="none" stroke="black" d="M479.5,-755C473.5,-755 467.5,-749 467.5,-743"/>
<polyline fill="none" stroke="black" points="467.5,-743 467.5,-625 "/>
<path fill="none" stroke="black" d="M467.5,-625C467.5,-619 473.5,-613 479.5,-613"/>
<text text-anchor="middle" x="550" y="-738.4" font-family="Times Roman,serif" font-size="14.00">Kind</text>
<polyline fill="none" stroke="black" points="467.5,-729 632.5,-729 "/>
<text text-anchor="start" x="475.5" y="-712.4" font-family="Times Roman,serif" font-size="14.00">id :integer</text>
<text text-anchor="start" x="475.5" y="-694.4" font-family="Times Roman,serif" font-size="14.00">name :string</text>
<text text-anchor="start" x="475.5" y="-676.4" font-family="Times Roman,serif" font-size="14.00">description :text</text>
<text text-anchor="start" x="475.5" y="-658.4" font-family="Times Roman,serif" font-size="14.00">user_id :integer</text>
<text text-anchor="start" x="475.5" y="-640.4" font-family="Times Roman,serif" font-size="14.00">created_at :datetime</text>
<text text-anchor="start" x="475.5" y="-622.4" font-family="Times Roman,serif" font-size="14.00">updated_at :datetime</text>
</g>
<!-- Kind&#45;&gt;Song -->
<g id="edge24" class="edge"><title>Kind&#45;&gt;Song</title>
<path fill="none" stroke="#7f94bf" d="M504.473,-605.668C493.697,-587.127 482.073,-567.126 470.864,-547.839"/>
<ellipse fill="none" stroke="#7f94bf" cx="506.632" cy="-609.381" rx="4.00002" ry="4.00002"/>
<polygon fill="#7f94bf" stroke="#7f94bf" points="470.772,-547.682 469.638,-536.774 468.26,-543.359 465.747,-539.036 465.747,-539.036 465.747,-539.036 468.26,-543.359 461.857,-541.297 470.772,-547.682 470.772,-547.682"/>
</g>
</g>
</svg>
